<svg version="1.1" id="Layer_1" xmlns="http://www.w3.org/2000/svg" xmlns:xlink="http://www.w3.org/1999/xlink" x="0px" y="0px"
	 width="100%" viewBox="0 0 298 267" enable-background="new 0 0 298 267" xml:space="preserve">
<path fill="#FFFFFE" opacity="1.000000" stroke="none" 
	d="
M152.000000,268.000000 
	C101.333336,268.000000 51.166668,268.000000 1.000000,268.000000 
	C1.000000,179.000000 1.000000,90.000000 1.000000,1.000000 
	C100.333336,1.000000 199.666672,1.000000 299.000000,1.000000 
	C299.000000,90.000000 299.000000,179.000000 299.000000,268.000000 
	C250.166672,268.000000 201.333328,268.000000 152.000000,268.000000 
M153.842117,103.289062 
	C168.050552,84.497215 162.632401,62.925018 145.641891,47.684422 
	C144.608124,46.757107 141.573334,46.418880 140.713165,47.191334 
	C131.144608,55.784122 124.340446,65.855255 123.791229,79.362846 
	C123.409439,88.752892 127.361137,96.447060 131.125092,104.149048 
	C129.055695,104.464012 126.986298,104.778976 124.390968,104.685280 
	C113.462891,93.289787 99.840889,88.882446 84.372398,88.326202 
	C84.372398,92.545097 84.372398,95.831108 83.548820,99.291916 
	C69.282509,103.193336 54.691185,106.216309 40.872910,111.328728 
	C32.705688,114.350395 25.213751,120.023079 18.424707,125.706085 
	C11.949772,131.126144 11.622430,146.169952 17.717138,152.042786 
	C23.262909,157.386658 29.598198,162.551727 36.537933,165.688141 
	C57.233047,175.041306 76.881462,186.110275 96.459724,197.582550 
	C127.628624,215.846588 159.750839,215.948898 190.806747,197.017960 
	C209.203339,185.803848 227.892105,175.428055 247.607254,166.711319 
	C254.612747,163.613968 261.245453,158.851883 266.838593,153.568970 
	C275.845062,145.062103 276.049744,134.348434 267.273560,125.751472 
	C261.799652,120.389366 255.046860,115.930595 248.153793,112.502518 
	C233.424103,105.177132 217.403336,101.736076 201.178070,98.320389 
	C201.290573,97.333504 201.404694,96.346809 201.515305,95.359711 
	C202.306244,88.301689 201.858917,87.845497 194.823578,88.747826 
	C192.688858,89.021622 190.560257,89.363297 188.443375,89.752823 
	C177.466522,91.772614 168.426407,97.335938 159.752274,104.726212 
	C157.672913,104.460831 155.593552,104.195450 153.842117,103.289062 
z"/>
<path fill="#3B8B3C" opacity="1.000000" stroke="none" 
	d="
M201.223190,99.160049 
	C217.403336,101.736076 233.424103,105.177132 248.153793,112.502518 
	C255.046860,115.930595 261.799652,120.389366 267.273560,125.751472 
	C276.049744,134.348434 275.845062,145.062103 266.838593,153.568970 
	C261.245453,158.851883 254.612747,163.613968 247.607254,166.711319 
	C227.892105,175.428055 209.203339,185.803848 190.806747,197.017960 
	C159.750839,215.948898 127.628624,215.846588 96.459724,197.582550 
	C76.881462,186.110275 57.233047,175.041306 36.537933,165.688141 
	C29.598198,162.551727 23.262909,157.386658 17.717138,152.042786 
	C11.622430,146.169952 11.949772,131.126144 18.424707,125.706085 
	C25.213751,120.023079 32.705688,114.350395 40.872910,111.328728 
	C54.691185,106.216309 69.282509,103.193336 84.128937,99.509323 
	C85.445053,102.813866 86.181046,105.900993 86.531906,109.046036 
	C77.091522,111.771652 67.863106,113.972237 59.032494,117.245911 
	C51.102833,120.185585 43.400360,123.969200 38.721920,131.775177 
	C35.621490,136.948227 36.056084,144.679901 40.354160,148.804504 
	C43.683338,151.999313 47.141640,155.386459 51.172661,157.467621 
	C70.792183,167.596878 90.367271,177.877548 110.444611,187.038300 
	C136.001343,198.699219 161.080750,195.779037 185.451660,182.446716 
	C197.093338,176.078003 209.062500,170.288910 221.026199,164.534302 
	C229.566391,160.426422 238.371933,156.896347 244.952713,149.642014 
	C250.524200,143.500290 251.019073,135.053345 244.880661,129.571609 
	C239.778427,125.015182 234.012436,120.660599 227.773834,118.045464 
	C218.509552,114.162018 208.568558,111.892929 198.910507,108.546295 
	C199.678024,105.157265 200.450607,102.158653 201.223190,99.160049 
z"/>
<path fill="#FBB00E" opacity="1.000000" stroke="none" 
	d="
M201.200623,98.740219 
	C200.450607,102.158653 199.678024,105.157265 198.703766,108.835609 
	C197.325851,112.339958 196.149612,115.164574 194.704697,118.185989 
	C192.631012,120.963806 190.825989,123.544823 188.716217,126.246872 
	C187.325790,127.400345 186.293365,128.496429 185.146332,129.455444 
	C172.650772,139.902496 158.522247,146.131790 141.825134,145.676025 
	C141.635864,143.870605 141.601120,142.471024 141.806778,141.303009 
	C142.793991,140.834351 143.994781,140.255539 144.219452,139.415619 
	C147.555710,126.943810 153.184967,115.584641 160.571533,105.051453 
	C168.426407,97.335938 177.466522,91.772614 188.443375,89.752823 
	C190.560257,89.363297 192.688858,89.021622 194.823578,88.747826 
	C201.858917,87.845497 202.306244,88.301689 201.515305,95.359711 
	C201.404694,96.346809 201.290573,97.333504 201.200623,98.740219 
z"/>
<path fill="#FCB00E" opacity="1.000000" stroke="none" 
	d="
M141.566360,141.071442 
	C141.601120,142.471024 141.635864,143.870605 141.400925,145.787231 
	C124.474937,144.202118 109.595055,138.144577 97.058014,126.274704 
	C94.712944,123.094498 92.502449,120.210388 90.296829,116.984192 
	C89.173477,114.090790 88.045258,111.539459 86.917046,108.988129 
	C86.181046,105.900993 85.445053,102.813866 84.540726,99.421921 
	C84.372398,95.831108 84.372398,92.545097 84.372398,88.326202 
	C99.840889,88.882446 113.462891,93.289787 124.793655,105.198669 
	C133.233414,116.303886 138.970596,127.960487 141.566360,141.071442 
z"/>
<path fill="#FEB210" opacity="1.000000" stroke="none" 
	d="
M132.068909,104.002213 
	C127.361137,96.447060 123.409439,88.752892 123.791229,79.362846 
	C124.340446,65.855255 131.144608,55.784122 140.713165,47.191334 
	C141.573334,46.418880 144.608124,46.757107 145.641891,47.684422 
	C162.632401,62.925018 168.050552,84.497215 153.441345,103.801888 
	C150.883713,106.352821 148.650299,108.316887 146.589188,110.447617 
	C143.956772,113.168945 141.520538,112.956116 138.934418,110.408531 
	C136.705399,108.212708 134.361832,106.133163 132.068909,104.002213 
z"/>
<path fill="#0D492C" opacity="1.000000" stroke="none" 
	d="
M131.597000,104.075630 
	C134.361832,106.133163 136.705399,108.212708 138.934418,110.408531 
	C141.520538,112.956116 143.956772,113.168945 146.589188,110.447617 
	C148.650299,108.316887 150.883713,106.352821 153.277390,104.122391 
	C155.593552,104.195450 157.672913,104.460831 160.161896,104.888832 
	C153.184967,115.584641 147.555710,126.943810 144.219452,139.415619 
	C143.994781,140.255539 142.793991,140.834351 141.806778,141.303009 
	C138.970596,127.960487 133.233414,116.303886 125.056618,105.403000 
	C126.986298,104.778976 129.055695,104.464012 131.597000,104.075630 
z"/>
<path fill="#0C6029" opacity="1.000000" stroke="none" 
	d="
M86.531906,109.046036 
	C88.045258,111.539459 89.173477,114.090790 90.088829,117.353561 
	C88.974472,118.416878 88.086990,118.811203 87.169319,119.114006 
	C78.657104,121.922729 69.974052,124.306740 63.809490,131.619049 
	C59.879017,136.281326 59.472935,142.210892 63.992523,146.326294 
	C67.989433,149.965759 72.375504,153.446136 77.151039,155.907959 
	C88.065918,161.534653 99.271507,166.611053 110.455811,171.698181 
	C125.860107,178.704742 141.863480,182.868286 158.619598,177.748825 
	C167.749481,174.959412 176.496841,170.803787 185.223740,166.839493 
	C195.486542,162.177521 205.958893,157.750229 215.578323,151.956024 
	C227.541626,144.749954 229.311874,135.327332 216.378128,126.952782 
	C209.987747,122.815033 202.154022,120.906410 194.973358,117.989182 
	C196.149612,115.164574 197.325851,112.339958 198.708832,109.226044 
	C208.568558,111.892929 218.509552,114.162018 227.773834,118.045464 
	C234.012436,120.660599 239.778427,125.015182 244.880661,129.571609 
	C251.019073,135.053345 250.524200,143.500290 244.952713,149.642014 
	C238.371933,156.896347 229.566391,160.426422 221.026199,164.534302 
	C209.062500,170.288910 197.093338,176.078003 185.451660,182.446716 
	C161.080750,195.779037 136.001343,198.699219 110.444611,187.038300 
	C90.367271,177.877548 70.792183,167.596878 51.172661,157.467621 
	C47.141640,155.386459 43.683338,151.999313 40.354160,148.804504 
	C36.056084,144.679901 35.621490,136.948227 38.721920,131.775177 
	C43.400360,123.969200 51.102833,120.185585 59.032494,117.245911 
	C67.863106,113.972237 77.091522,111.771652 86.531906,109.046036 
z"/>
<path fill="#01452C" opacity="1.000000" stroke="none" 
	d="
M194.704681,118.185989 
	C202.154022,120.906410 209.987747,122.815033 216.378128,126.952782 
	C229.311874,135.327332 227.541626,144.749954 215.578323,151.956024 
	C205.958893,157.750229 195.486542,162.177521 185.223740,166.839493 
	C176.496841,170.803787 167.749481,174.959412 158.619598,177.748825 
	C141.863480,182.868286 125.860107,178.704742 110.455811,171.698181 
	C99.271507,166.611053 88.065918,161.534653 77.151039,155.907959 
	C72.375504,153.446136 67.989433,149.965759 63.992523,146.326294 
	C59.472935,142.210892 59.879017,136.281326 63.809490,131.619049 
	C69.974052,124.306740 78.657104,121.922729 87.169319,119.114006 
	C88.086990,118.811203 88.974472,118.416878 90.083961,117.695641 
	C92.502449,120.210388 94.712944,123.094498 96.866241,126.600067 
	C95.463806,127.847397 93.815002,128.169861 92.829742,129.155548 
	C89.768761,132.217911 85.226128,135.242554 84.624756,138.843964 
	C84.178123,141.518661 88.879654,145.147446 91.486130,148.181091 
	C92.287117,149.113358 93.705940,149.564331 94.902901,150.099030 
	C105.041267,154.627823 115.077858,159.414566 125.379585,163.537811 
	C133.282257,166.700836 141.716370,168.701996 150.146500,166.041122 
	C159.735641,163.014450 169.146942,159.381317 178.504669,155.680771 
	C184.035294,153.493652 189.413467,150.855560 194.668991,148.060699 
	C198.284866,146.137772 201.161743,143.286545 200.979034,138.666245 
	C200.804871,134.262161 197.859528,132.009613 194.328964,130.081726 
	C192.411377,129.034592 190.780945,127.461617 189.020981,126.125832 
	C190.825989,123.544823 192.631012,120.963806 194.704681,118.185989 
z"/>
<path fill="#022E28" opacity="1.000000" stroke="none" 
	d="
M188.716217,126.246872 
	C190.780945,127.461617 192.411377,129.034592 194.328964,130.081726 
	C197.859528,132.009613 200.804871,134.262161 200.979034,138.666245 
	C201.161743,143.286545 198.284866,146.137772 194.668991,148.060699 
	C189.413467,150.855560 184.035294,153.493652 178.504669,155.680771 
	C169.146942,159.381317 159.735641,163.014450 150.146500,166.041122 
	C141.716370,168.701996 133.282257,166.700836 125.379585,163.537811 
	C115.077858,159.414566 105.041267,154.627823 94.902901,150.099030 
	C93.705940,149.564331 92.287117,149.113358 91.486130,148.181091 
	C88.879654,145.147446 84.178123,141.518661 84.624756,138.843964 
	C85.226128,135.242554 89.768761,132.217911 92.829742,129.155548 
	C93.815002,128.169861 95.463806,127.847397 97.000824,126.896164 
	C109.595055,138.144577 124.474937,144.202118 141.555450,146.193069 
	C158.522247,146.131790 172.650772,139.902496 185.146332,129.455444 
	C186.293365,128.496429 187.325790,127.400345 188.716217,126.246872 
z"/>
</svg>