<?xml version="1.0" encoding="UTF-8"?>
<svg version="1.1" xmlns="http://www.w3.org/2000/svg" width="1280" height="720">
<path d="M0 0 C422.4 0 844.8 0 1280 0 C1280 237.6 1280 475.2 1280 720 C857.6 720 435.2 720 0 720 C0 482.4 0 244.8 0 0 Z " fill="#FEFEFE" transform="translate(0,0)"/>
<path d="M0 0 C13.55372669 -1.0165295 26.42948697 3.3248893 37 12 C37.47308594 12.54785156 37.94617188 13.09570312 38.43359375 13.66015625 C40.57059654 15.48806637 41.97517174 15.26723496 44.75 15.25 C50.14074942 15.58741226 52.01273841 17.53619499 55.48828125 21.44921875 C56.96746178 23.19686894 56.96746178 23.19686894 59.5 23.875 C62.37378102 22.86917664 63.19157489 21.80966044 65.1875 19.5625 C68.34230036 16.1134341 68.34230036 16.1134341 71.35546875 15.59375 C72.60263672 15.57828125 72.60263672 15.57828125 73.875 15.5625 C79.54135684 15.40011572 81.73840442 12.92508009 85.6484375 9.0703125 C95.04303929 0.79931757 107.08108403 -0.35756748 119 0 C119 3.63 119 7.26 119 11 C120.49466797 10.95166016 120.49466797 10.95166016 122.01953125 10.90234375 C126.07721203 11.00189431 129.76553132 11.60929251 133.6875 12.5625 C134.41300049 12.73740967 135.13850098 12.91231934 135.88598633 13.0925293 C156.45479137 18.27018649 177.91150514 25.3391052 191 43 C192.69421133 48.08263398 192.92639198 53.25245695 191.19921875 58.375 C184.52635714 71.58313844 169.41072927 79.44504256 155.95776367 84.27368164 C143.76607427 88.79672391 132.17614777 95.29119847 121.27416992 102.29443359 C109.1833061 110.05762435 97.08107537 117.52605049 83 121 C82.175 121.27585937 81.35 121.55171875 80.5 121.8359375 C59.67865658 128.28345578 36.14922758 123.44429479 17 114 C11.8528333 111.24599622 6.92736367 108.12487508 2 105 C-10.85668855 96.84937838 -23.85699005 90.03955224 -37.72070312 83.76953125 C-65.1506835 71.31007126 -65.1506835 71.31007126 -71 60 C-71.72295782 56.99148442 -71.81246133 54.14770151 -71.75 51.0625 C-71.7389624 50.26416748 -71.7279248 49.46583496 -71.71655273 48.64331055 C-71.50518485 44.11910876 -71.07861317 40.88402795 -68.0625 37.3125 C-66.10546875 35.58984375 -66.10546875 35.58984375 -64 34 C-63.33613281 33.40316406 -62.67226563 32.80632812 -61.98828125 32.19140625 C-46.75355462 19.09686303 -19.93325115 11 0 11 C0 7.37 0 3.74 0 0 Z " fill="#00442B" transform="translate(431,272)"/>
<path d="M0 0 C13.31349033 -0.99851177 26.7464366 3.19060046 37 12 C49.29076495 23.39431761 58.1336663 41.25088183 59 58 C53.34935949 58.21346864 48.64364565 57.66708227 43.25 55.875 C42.55680664 55.6476416 41.86361328 55.4202832 41.14941406 55.18603516 C26.6819065 50.28682616 13.99537368 42.41159457 6 29 C4.88839559 26.69023182 3.92808431 24.39348058 3 22 C-2.84039218 21.68115036 -7.52627643 22.75198549 -13.0625 24.5625 C-13.89305908 24.8313501 -14.72361816 25.1002002 -15.5793457 25.37719727 C-27.5389867 29.37985152 -39.48982527 34.31915038 -47.0625 44.875 C-48.71307717 50.37692389 -47.9417765 54.95265977 -45.5625 60.125 C-36.6038096 70.17621362 -23.1353301 74.89845173 -11.0546875 80.15625 C-2.80579463 83.76708914 5.12258332 87.48550358 12.8125 92.1875 C20.29297938 96.74868285 27.70091413 100.15218231 36 103 C37.38251953 103.50853516 37.38251953 103.50853516 38.79296875 104.02734375 C60.21830435 110.73628722 82.66631372 104.75294798 102 95 C106.36388533 92.66845109 110.68172345 90.25403754 114.99755859 87.83496094 C120.325036 84.88691365 125.70648191 82.14393095 131.24609375 79.6171875 C131.8638266 79.33519501 132.48155945 79.05320251 133.11801147 78.76266479 C136.13462058 77.39228388 139.15854845 76.04399009 142.19433594 74.71630859 C156.95762096 68.20991332 156.95762096 68.20991332 166.4765625 55.8671875 C167.7883965 51.18766025 167.38518356 48.26429908 165.0625 44.0625 C156.12163131 31.18862624 138.81707731 26.26209426 124.2890625 22.375 C121.50165974 21.91836064 118.81930098 21.93500171 116 22 C115.69449219 22.73863281 115.38898438 23.47726562 115.07421875 24.23828125 C108.2992988 39.25761083 96.74230521 47.93747398 81.875 54.3125 C74.7141761 56.99062515 67.63725098 58.33205439 60 58 C60.62239665 40.57289374 70.54950298 22.75763631 83 11 C91.79362758 3.82909807 101.96267168 -0.18722339 113.3125 -0.0625 C114.91544922 -0.04896484 114.91544922 -0.04896484 116.55078125 -0.03515625 C117.35902344 -0.02355469 118.16726563 -0.01195312 119 0 C119 3.63 119 7.26 119 11 C120.49466797 10.95166016 120.49466797 10.95166016 122.01953125 10.90234375 C126.07721203 11.00189431 129.76553132 11.60929251 133.6875 12.5625 C134.41300049 12.73740967 135.13850098 12.91231934 135.88598633 13.0925293 C156.45479137 18.27018649 177.91150514 25.3391052 191 43 C192.69421133 48.08263398 192.92639198 53.25245695 191.19921875 58.375 C184.52635714 71.58313844 169.41072927 79.44504256 155.95776367 84.27368164 C143.76607427 88.79672391 132.17614777 95.29119847 121.27416992 102.29443359 C109.1833061 110.05762435 97.08107537 117.52605049 83 121 C82.175 121.27585937 81.35 121.55171875 80.5 121.8359375 C59.67865658 128.28345578 36.14922758 123.44429479 17 114 C11.8528333 111.24599622 6.92736367 108.12487508 2 105 C-10.85668855 96.84937838 -23.85699005 90.03955224 -37.72070312 83.76953125 C-65.1506835 71.31007126 -65.1506835 71.31007126 -71 60 C-71.72295782 56.99148442 -71.81246133 54.14770151 -71.75 51.0625 C-71.7389624 50.26416748 -71.7279248 49.46583496 -71.71655273 48.64331055 C-71.50518485 44.11910876 -71.07861317 40.88402795 -68.0625 37.3125 C-66.10546875 35.58984375 -66.10546875 35.58984375 -64 34 C-63.33613281 33.40316406 -62.67226563 32.80632812 -61.98828125 32.19140625 C-46.75355462 19.09686303 -19.93325115 11 0 11 C0 7.37 0 3.74 0 0 Z " fill="#3A8A3B" transform="translate(431,272)"/>
<path d="M0 0 C1.32 2.64 2.64 5.28 4 8 C1.46109329 10.53890671 -0.54188166 10.8202229 -4 11.75 C-12.70006304 14.34847016 -21.11028559 18.01346646 -26 26 C-26.66284543 30.12437159 -26.33416992 32.28807277 -24.5625 36.0625 C-17.90648876 43.69256166 -8.02511524 47.65770867 0.95410156 51.95898438 C3.10397921 52.98991985 5.24754229 54.03315079 7.390625 55.078125 C29.62470511 65.85046302 52.97205829 76.10992944 77.87060547 67.54394531 C85.84413614 64.50005756 93.50417036 60.62031417 101.1484375 56.84375 C105.80670134 54.55092627 110.51715292 52.43194424 115.2824707 50.37280273 C128.87942929 44.51967228 128.87942929 44.51967228 139 34 C139.52268295 29.96787437 139.29437163 27.62713956 137.5625 23.9375 C130.00341807 15.27221096 119.60387129 12.43317073 109 9 C110.32 6.03 111.64 3.06 113 0 C129.94724939 0.90788836 149.93440402 8.00459931 161.4375 20.6875 C164.55056069 25.29482981 165.46298378 28.11199886 164.6484375 33.6328125 C162.22491976 42.48011219 154.48305736 46.70296051 147 51 C142.70423699 53.15600204 138.33027191 55.11329076 133.9375 57.0625 C124.15055023 61.46819822 114.70126936 66.22568148 105.3125 71.4375 C95.77210606 76.70415252 86.50378166 81.02507273 76 84 C74.75605469 84.36867188 73.51210938 84.73734375 72.23046875 85.1171875 C47.34398514 91.15537734 23.71470258 80.97042076 2.8605957 68.41113281 C-5.26581409 63.63079605 -13.81496208 59.91324053 -22.4855957 56.2355957 C-45.51328213 46.38557312 -45.51328213 46.38557312 -51 36 C-52.19359185 32.10093328 -52.65757001 28.72730114 -51.18359375 24.85546875 C-43.26477865 11.18701892 -27.36788202 6.03141371 -13 2 C-11.44925781 1.45666016 -11.44925781 1.45666016 -9.8671875 0.90234375 C-6.47281313 -0.16591303 -3.5370979 -0.14148392 0 0 Z " fill="#0B5F29" transform="translate(434,293)"/>
<path d="M0 0 C1.05445313 0.01023193 2.10890625 0.02046387 3.1953125 0.03100586 C15.42939059 0.36382256 24.56777853 3.52611525 33.1875 12.5625 C31.69673566 15.8451932 29.80129679 18.49327441 27.5625 21.3125 C26.93085937 22.11171875 26.29921875 22.9109375 25.6484375 23.734375 C25.16632812 24.33765625 24.68421875 24.9409375 24.1875 25.5625 C23.56875 25.170625 22.95 24.77875 22.3125 24.375 C19.63177665 22.82018046 16.94181513 21.35576675 14.1875 19.9375 C13.3625 19.51210938 12.5375 19.08671875 11.6875 18.6484375 C7.38631548 16.78011047 3.28340582 16.39024808 -1.375 16.3125 C-2.30441406 16.28671875 -3.23382812 16.2609375 -4.19140625 16.234375 C-7.279527 16.62096538 -8.61006076 17.39050923 -10.8125 19.5625 C-11.5625 22.5625 -11.5625 22.5625 -10.8125 25.5625 C-6.33650848 29.25355773 -0.71606226 29.78306388 4.8125 30.875 C14.35701092 32.91663163 23.46004339 35.11271028 30.375 42.5 C33.79191914 48.0867875 32.8976307 55.3268761 32.1875 61.5625 C30.727941 67.45512951 27.33395171 70.93653489 22.3984375 74.3125 C10.34605075 81.12657025 -4.54319553 80.93090233 -17.625 77.61328125 C-24.30982883 75.40958155 -31.3588409 72.19098524 -35.8125 66.5625 C-35.76005193 62.87615011 -33.34680936 60.2099093 -31.25 57.3125 C-30.60933594 56.42046875 -29.96867188 55.5284375 -29.30859375 54.609375 C-28.56802734 53.59617187 -28.56802734 53.59617187 -27.8125 52.5625 C-25.0811935 53.84538639 -23.11339673 55.10780055 -20.6875 57 C-12.55729233 62.80974671 -2.56922866 63.81588328 7.1875 62.5625 C9.58033384 61.33000587 9.58033384 61.33000587 11.1875 59.5625 C11.85416667 57.0625 11.85416667 57.0625 11.1875 54.5625 C7.62377203 50.8936755 2.79691637 50.21435443 -2 49.0625 C-24.16497105 43.61353804 -24.16497105 43.61353804 -31.8125 33.5625 C-34.25492436 28.67765128 -33.54347326 21.29704455 -32.1640625 16.13671875 C-28.64129203 8.38361281 -22.35857412 4.37426435 -14.63964844 1.39599609 C-9.77595803 -0.03791056 -5.04011471 -0.07362237 0 0 Z " fill="#175B20" transform="translate(709.8125,283.4375)"/>
<path d="M0 0 C3.10692428 -0.44384633 5.90566974 -0.58728118 9 0 C11.08107615 1.63776999 12.69562763 3.43889344 14.453125 5.4140625 C15.95973167 7.19404352 15.95973167 7.19404352 18.5 7.875 C21.39015561 6.86344554 22.23879509 5.76029909 24.25 3.5 C26.34075898 1.2061651 27.36915092 0.11973053 30.44921875 -0.46484375 C32.67127944 -0.4404255 34.80118325 -0.31411668 37 0 C36.57589844 0.6084375 36.15179688 1.216875 35.71484375 1.84375 C27.37157033 14.31281797 22.36612267 27.44831442 19 42 C35.01552725 39.91877431 50.23502101 35.76497899 62 24 C65.81341061 23.55658016 67.71396381 23.84554045 71.125 25.6875 C73.9978427 27.99826478 76.11213961 29.82839454 78 33 C78.25 35.875 78.25 35.875 77 39 C71.22708685 45.65626623 63.63860357 48.82239343 55.6875 52.1875 C53.94823242 52.94836914 53.94823242 52.94836914 52.17382812 53.72460938 C30.54489416 63.09836322 30.54489416 63.09836322 19.4375 63.25 C18.32246094 63.27578125 17.20742188 63.3015625 16.05859375 63.328125 C5.37520666 62.81743109 -4.49182365 58.42740484 -14.13769531 54.17675781 C-16.25379639 53.24833436 -18.37993423 52.34635888 -20.5078125 51.4453125 C-34.95757206 45.20706613 -34.95757206 45.20706613 -40 39 C-41.3125 35.375 -41.3125 35.375 -41 32 C-37.96265001 27.78690162 -33.10549625 24.30936186 -28 23 C-25.03551318 24.06652717 -22.8102028 25.84879391 -20.375 27.8125 C-13.46058166 33.02997318 -6.07461277 36.13490107 2.125 38.75 C2.78177734 38.96084229 3.43855469 39.17168457 4.11523438 39.38891602 C8.73189364 40.79501391 13.19905289 41.5081435 18 42 C14.84409441 26.38657237 8.51666231 13.42019515 0 0 Z " fill="#012D28" transform="translate(472,288)"/>
<path d="M0 0 C1.60294922 0.01353516 1.60294922 0.01353516 3.23828125 0.02734375 C4.04652344 0.03894531 4.85476563 0.05054688 5.6875 0.0625 C6.7198553 14.11400268 2.5714424 26.91240391 -6.5 37.65234375 C-17.2349199 49.09260294 -32.6133112 57.32730203 -48.49609375 58.1796875 C-50.10202464 58.18615 -51.70807186 58.13225775 -53.3125 58.0625 C-52.69010335 40.63539374 -42.76299702 22.82013631 -30.3125 11.0625 C-21.51887242 3.89159807 -11.34982832 -0.12472339 0 0 Z " fill="#FCB00D" transform="translate(544.3125,271.9375)"/>
<path d="M0 0 C12.47752574 -1.27611059 24.97751055 2.89077629 35.05859375 10.33203125 C47.44774788 20.9762341 56.9217811 38.04838677 58.8125 54.375 C58.874375 55.57125 58.93625 56.7675 59 58 C53.34935949 58.21346864 48.64364565 57.66708227 43.25 55.875 C42.55680664 55.6476416 41.86361328 55.4202832 41.14941406 55.18603516 C27.48741817 50.55960086 12.82929722 42.48996983 6 29 C4.47828817 25.38660654 3.2043549 21.72961518 2 18 C1.5875 16.845 1.175 15.69 0.75 14.5 C-0.28955928 9.64872334 -0.16083386 4.94117349 0 0 Z " fill="#FCB00D" transform="translate(431,272)"/>
<path d="M0 0 C8.10714937 3.54224625 13.46061247 13.60308139 17.078125 21.20703125 C20.70917474 30.5593291 20.26097187 41.1613344 16.46875 50.3671875 C14.22200258 54.69596478 11.37180414 58.30467187 8.13671875 61.93359375 C7.605625 62.5575 7.07453125 63.18140625 6.52734375 63.82421875 C2.90466357 67.82037112 2.90466357 67.82037112 -0.30078125 68.29296875 C-5.19451417 67.60665255 -7.83908063 63.57638086 -10.86328125 59.93359375 C-18.77123749 49.12193483 -21.34797739 39.69764073 -19.50390625 26.328125 C-17.89946296 19.68269433 -8.11114285 -0.28907637 0 0 Z " fill="#FEB210" transform="translate(490.86328125,228.06640625)"/>
<path d="M0 0 C5.28 0 10.56 0 16 0 C16 7.92 16 15.84 16 24 C23.26 24 30.52 24 38 24 C38 28.62 38 33.24 38 38 C30.74 38 23.48 38 16 38 C16 45.92 16 53.84 16 62 C10.72 62 5.44 62 0 62 C0 54.08 0 46.16 0 38 C-6.93 38 -13.86 38 -21 38 C-21 33.38 -21 28.76 -21 24 C-14.07 24 -7.14 24 0 24 C0 16.08 0 8.16 0 0 Z " fill="#195C22" transform="translate(774,293)"/>
<path d="M0 0 C3.10692428 -0.44384633 5.90566974 -0.58728118 9 0 C11.08107615 1.63776999 12.69562763 3.43889344 14.453125 5.4140625 C15.95973167 7.19404352 15.95973167 7.19404352 18.5 7.875 C21.39015561 6.86344554 22.23879509 5.76029909 24.25 3.5 C26.34075898 1.2061651 27.36915092 0.11973053 30.44921875 -0.46484375 C32.67127944 -0.4404255 34.80118325 -0.31411668 37 0 C36.57589844 0.6084375 36.15179688 1.216875 35.71484375 1.84375 C27.37157033 14.31281797 22.36612267 27.44831442 19 42 C20.32 42.33 21.64 42.66 23 43 C20.03 43 17.06 43 14 43 C15.98 42.505 15.98 42.505 18 42 C14.84409441 26.38657237 8.51666231 13.42019515 0 0 Z " fill="#09462B" transform="translate(472,288)"/>
</svg>
